<?xml version="1.0" encoding="UTF-8"?>
<svg xmlns="http://www.w3.org/2000/svg" viewBox="0 0 2023 1968.1">
  <defs>
    <style>
      .cls-1 {
        fill: #fff;
      }

      .cls-2 {
        fill: #ff7900;
      }

      .cls-3 {
        fill: #0c0c0c;
        font-family: Tahoma-Bold, Tahoma;
        font-size: 87.81px;
        font-weight: 700;
        isolation: isolate;
      }

      .cls-4 {
        fill: #890000;
      }
    </style>
  </defs>
  <g id="diseño">
    <rect id="BASE" class="cls-4" width="2023" height="1968.1"/>
    <path id="COLOR_1" data-name="COLOR 1" class="cls-2" d="M7.01-.52H189.65V1968.1H7.01V-.52ZM372.28,1968.1h182.63V-.52h-182.63V1968.1Zm365.27,0h182.63V-.52h-182.63V1968.1Zm365.27,0h182.63V-.52h-182.63V1968.1Zm365.27,0h182.63V-.52h-182.63V1968.1Zm365.27,0h182.63V-.52h-182.63V1968.1Z"/>
  </g>
  <g id="logo">
    <g>
      <polygon class="cls-1" points="693.3 491.2 693.2 455 709.2 473.9 724.8 453.7 668.4 380.8 668.4 421.6 672.8 427.4 672.8 465.2 693.3 491.2"/>
      <polygon class="cls-1" points="789.9 369.6 668.4 369.6 687.1 393.8 716.2 393.8 716.1 431.3 729.1 448.1 742.1 431.3 742 393.8 771.2 393.8 789.9 369.6"/>
      <polygon class="cls-1" points="765 491.2 765.1 455 749.1 473.9 733.4 453.7 789.9 380.8 789.9 421.6 785.5 427.4 785.5 465.2 765 491.2"/>
      <polygon class="cls-1" points="729.2 497.2 744.5 479.2 729.1 459.3 713.7 479.2 729.2 497.2"/>
    </g>
    <g>
      <path class="cls-1" d="M531.9,1648.7l-14,11.6,10.9-16.9-26.1-46.8-26.1,46.8,10.9,16.9-14-11.6-10.3,18.5v10.9l39.5,31.9,39.5-31.9v-10.9l-10.3-18.5Zm-22.7,33.4l-6.5-20.8-6.5,20.8-10.7-9.5,17.1-47.5,17.1,47.5-10.5,9.5Z"/>
      <g>
        <path class="cls-1" d="M465.3,1719.2c-.2-.3-.4-.6-.8-.9-.3-.2-.7-.4-1.1-.5s-.9-.2-1.6-.2h-2.2v8.6h2.1v-3.2h.4c1.1,0,1.9-.3,2.5-.8s.9-1.2,.9-2.1c0-.2-.1-.5-.2-.9Zm-2.1,2.1c-.3,.2-.7,.3-1.2,.3h-.4v-2.3h.3c.6,0,1,.1,1.3,.3s.4,.5,.4,.9c0,.3-.1,.6-.4,.8Z"/>
        <path class="cls-1" d="M474.8,1722.6c.5-.2,.9-.6,1.2-1s.4-.9,.4-1.4c0-.4-.1-.7-.3-1.1s-.4-.6-.8-.9c-.3-.2-.6-.4-1-.5s-.9-.1-1.6-.1h-2.2v8.6h2v-3.4h.3l2.3,3.4h2.4l-2.7-3.6Zm-.7-1.3c-.3,.2-.7,.3-1.2,.3h-.4v-2.4h.3c.6,0,1,.1,1.3,.3,.3,.2,.4,.5,.4,.9,0,.4-.1,.7-.4,.9Z"/>
        <path class="cls-1" d="M489.9,1720.2c-.2-.6-.5-1.1-1-1.5-.4-.4-.9-.8-1.4-1s-1.1-.3-1.7-.3-1.1,.1-1.7,.3c-.5,.2-1,.6-1.4,1s-.8,.9-1,1.5-.3,1.2-.3,1.8,.1,1.2,.3,1.8,.6,1.1,1,1.5,.9,.8,1.4,1,1.1,.3,1.7,.3c.7,0,1.3-.2,1.9-.5,.6-.3,1.1-.8,1.6-1.3,.3-.4,.5-.8,.7-1.3,.1-.5,.2-1,.2-1.5,0-.6-.1-1.3-.3-1.8Zm-2.5,3.7c-.4,.5-1,.8-1.6,.8s-1.2-.2-1.6-.8c-.4-.5-.7-1.1-.7-1.9s.2-1.4,.7-1.9,1-.8,1.6-.8,1.2,.2,1.6,.8,.7,1.1,.7,1.9c0,.8-.2,1.4-.7,1.9Z"/>
        <path class="cls-1" d="M501.4,1718.8c-.9-.8-2.2-1.2-3.8-1.2h-2.3v8.6h2.3c.7,0,1.3-.1,1.7-.2,.5-.1,.9-.3,1.3-.5,.7-.4,1.2-.9,1.6-1.5,.4-.6,.5-1.3,.5-2.1,.1-1.2-.4-2.3-1.3-3.1Zm-1.5,5c-.5,.4-1.2,.7-2.1,.7h-.4v-4.9h.4c.9,0,1.6,.2,2.1,.7,.5,.4,.8,1.1,.8,1.8s-.3,1.3-.8,1.7Z"/>
        <path class="cls-1" d="M507.8,1717.7v5c0,1.2,.3,2.2,1,2.9,.6,.7,1.5,1,2.7,1,1.1,0,2-.3,2.7-1.1,.6-.7,1-1.7,1-2.9v-5h-1.8v5c0,.7-.1,1.2-.4,1.5-.3,.3-.7,.5-1.2,.5-.6,0-1-.2-1.3-.6s-.4-.9-.4-1.7v-4.8l-2.3,.2h0Z"/>
        <path class="cls-1" d="M527.2,1718.2c-.4-.3-.8-.5-1.3-.6s-.9-.2-1.4-.2c-.6,0-1.2,.1-1.8,.3-.6,.2-1,.6-1.5,1-.4,.4-.7,.9-.9,1.5s-.3,1.2-.3,1.8c0,.7,.1,1.4,.4,2.1,.3,.6,.7,1.2,1.3,1.6,.4,.3,.8,.5,1.3,.7s.9,.2,1.5,.2c.5,0,.9-.1,1.4-.2,.4-.1,.8-.3,1.2-.6l.1-2.3c-.4,.4-.9,.6-1.3,.8s-.9,.3-1.3,.3c-.7,0-1.3-.2-1.8-.7s-.7-1.1-.7-1.9,.2-1.4,.7-1.9,1.1-.8,1.8-.8c.4,0,.8,.1,1.2,.3,.4,.2,.8,.5,1.1,.9l.3-2.3Z"/>
        <polygon class="cls-1" points="536.1 1726.3 536.1 1719.5 538.8 1719.5 538.8 1717.7 531.3 1717.7 531.3 1719.5 534 1719.5 534 1726.3 536.1 1726.3"/>
        <path class="cls-1" d="M551.4,1720.2c-.2-.6-.5-1.1-1-1.5-.4-.4-.9-.8-1.4-1s-1.1-.3-1.7-.3-1.1,.1-1.7,.3c-.5,.2-1,.6-1.4,1s-.8,.9-1,1.5-.3,1.2-.3,1.8,.1,1.2,.3,1.8,.6,1.1,1,1.5,.9,.8,1.4,1,1.1,.3,1.7,.3c.7,0,1.3-.2,1.9-.5,.6-.3,1.1-.8,1.6-1.3,.3-.4,.5-.8,.7-1.3,.1-.5,.2-1,.2-1.5,0-.6-.1-1.3-.3-1.8Zm-2.4,3.7c-.4,.5-1,.8-1.6,.8s-1.2-.2-1.6-.8c-.4-.5-.7-1.1-.7-1.9s.2-1.4,.7-1.9,1-.8,1.6-.8,1.2,.2,1.6,.8,.7,1.1,.7,1.9c-.1,.8-.3,1.4-.7,1.9Z"/>
        <path class="cls-1" d="M479.7,1734.8c-.2-.6-.5-1.1-1-1.5-.4-.4-.9-.8-1.4-1s-1.1-.3-1.7-.3-1.1,.1-1.7,.3c-.5,.2-1,.6-1.4,1s-.8,.9-1,1.5-.3,1.2-.3,1.8,.1,1.2,.3,1.8,.6,1.1,1,1.5,.9,.8,1.4,1,1.1,.3,1.7,.3c.7,0,1.3-.2,1.9-.5,.6-.3,1.1-.8,1.6-1.3,.3-.4,.5-.8,.7-1.3,.1-.5,.2-1,.2-1.5,.1-.6,0-1.2-.3-1.8Zm-2.4,3.7c-.4,.5-1,.8-1.6,.8s-1.2-.2-1.6-.8c-.4-.5-.7-1.1-.7-1.9s.2-1.4,.7-1.9,1-.8,1.6-.8,1.2,.2,1.6,.8,.7,1.1,.7,1.9-.3,1.4-.7,1.9Z"/>
        <polygon class="cls-1" points="487.2 1741 487.2 1737.6 490.2 1737.6 490.2 1735.8 487.2 1735.8 487.2 1734.1 490.6 1734.1 490.6 1732.3 485.2 1732.3 485.2 1741 487.2 1741"/>
        <rect class="cls-1" x="495.6" y="1732.3" width="2.1" height="8.6"/>
        <path class="cls-1" d="M509.9,1732.9c-.4-.3-.8-.5-1.3-.6-.4-.1-.9-.2-1.4-.2-.6,0-1.2,.1-1.8,.3-.6,.2-1,.6-1.5,1-.4,.4-.7,.9-.9,1.5s-.3,1.2-.3,1.8c0,.7,.1,1.4,.4,2.1,.3,.6,.7,1.2,1.3,1.6,.4,.3,.8,.5,1.3,.7s.9,.2,1.5,.2c.5,0,.9-.1,1.4-.2,.4-.1,.8-.3,1.2-.6l.1-2.3c-.4,.4-.9,.6-1.3,.8s-.9,.3-1.3,.3c-.7,0-1.3-.2-1.8-.7s-.7-1.1-.7-1.9,.2-1.4,.7-1.9,1.1-.8,1.8-.8c.4,0,.8,.1,1.2,.3,.4,.2,.8,.5,1.1,.9l.3-2.3Z"/>
        <rect class="cls-1" x="515" y="1732.3" width="2.1" height="8.6"/>
        <path class="cls-1" d="M525.9,1732.1h-.1l-4.4,8.9h2.1l.6-1.3h3.5l.6,1.3h2.2l-4.5-8.9Zm-1.3,6.1l1.1-2.7,1.1,2.7h-2.2Z"/>
        <polygon class="cls-1" points="540 1741 540 1739.1 536.6 1739.1 536.6 1732.3 534.6 1732.3 534.6 1741 540 1741"/>
      </g>
    </g>
  </g>
  <g id="TITULOS">
    <text class="cls-3" transform="translate(838.93 -21.61)"><tspan x="0" y="0">FRENTE</tspan></text>
  </g>
</svg>