<?xml version="1.0" encoding="utf-8"?>
<!-- Generator: Adobe Illustrator 27.0.0, SVG Export Plug-In . SVG Version: 6.00 Build 0)  -->
<svg version="1.1" id="Capa_1" xmlns="http://www.w3.org/2000/svg" xmlns:xlink="http://www.w3.org/1999/xlink" x="0px" y="0px"
	 viewBox="0 0 841.9 595.3" style="enable-background:new 0 0 841.9 595.3;" xml:space="preserve">
<g>
	<g>
		<polygon points="291.67,516.28 291.36,386 349.18,453.95 405.44,381.22 201.93,118.17 201.93,265.29 217.69,286.4 217.69,422.65 
					"/>
		<polygon points="639.97,78 202.03,78 269.37,165.1 374.51,165.1 374.14,300.49 421,361.05 467.86,300.49 467.49,165.1 
			572.63,165.1 		"/>
		<polygon points="550.33,516.28 550.64,386 492.82,453.95 436.56,381.22 640.07,118.17 640.07,265.29 624.31,286.4 624.31,422.65 
					"/>
		<polygon points="421.31,538 476.52,473.11 421.01,401.35 365.48,473.11 		"/>
	</g>
</g>
</svg>
